<?xml version="1.0" standalone="no"?>
<!DOCTYPE svg PUBLIC "-//W3C//DTD SVG 20010904//EN"
 "http://www.w3.org/TR/2001/REC-SVG-20010904/DTD/svg10.dtd">
<svg version="1.0" xmlns="http://www.w3.org/2000/svg"
 width="700.000000pt" height="700.000000pt" viewBox="0 0 700.000000 700.000000"
 preserveAspectRatio="xMidYMid meet">
<metadata>
Created by potrace 1.14, written by Peter Selinger 2001-2017
</metadata>
<g transform="translate(0.000000,700.000000) scale(0.100000,-0.100000)"
fill="#000000" stroke="none">
<path d="M3249 5986 c-2 -2 -58 -7 -124 -11 -157 -9 -173 -11 -220 -18 -22 -4
-65 -9 -95 -12 -30 -4 -62 -8 -70 -10 -8 -2 -37 -6 -63 -10 -138 -17 -384 -78
-564 -139 -880 -298 -1605 -940 -1917 -1698 -87 -211 -81 -327 28 -568 103
-226 243 -418 481 -655 143 -143 179 -176 275 -255 30 -25 57 -47 60 -51 12
-14 254 -191 335 -246 227 -152 470 -277 677 -348 87 -31 256 -78 321 -91 10
-2 26 -5 35 -8 48 -15 336 -61 437 -71 33 -3 76 -7 95 -10 237 -30 750 -35
1015 -10 130 12 172 17 200 20 17 2 55 6 85 10 30 3 62 7 70 10 8 2 38 7 65
10 28 3 57 7 65 10 8 2 31 7 50 10 177 30 466 114 610 177 568 249 1192 755
1502 1217 75 113 123 203 186 351 111 262 105 318 -66 655 -64 126 -226 387
-251 405 -4 3 -34 39 -68 80 -313 388 -861 791 -1338 985 -248 101 -645 200
-920 230 -27 3 -66 7 -85 10 -34 4 -105 11 -206 21 -60 5 -600 14 -605 10z
m356 -200 c94 -3 184 -8 200 -10 17 -3 62 -7 100 -11 74 -6 219 -22 270 -31
17 -3 44 -7 60 -10 17 -3 44 -7 60 -10 210 -34 526 -118 680 -181 208 -85 511
-249 680 -369 321 -228 643 -588 890 -994 154 -253 158 -364 20 -641 -66 -134
-241 -379 -356 -501 -317 -332 -509 -501 -771 -676 -163 -110 -273 -167 -431
-226 -126 -47 -346 -104 -507 -131 -19 -3 -42 -8 -50 -10 -8 -2 -40 -7 -70
-10 -30 -3 -66 -8 -80 -10 -52 -9 -87 -14 -165 -21 -44 -3 -87 -8 -96 -9 -9
-2 -65 -6 -125 -10 -60 -4 -131 -9 -159 -11 -67 -5 -520 -5 -620 1 -125 6
-299 21 -365 30 -19 3 -51 7 -70 10 -70 8 -196 30 -287 49 -48 10 -219 58
-257 73 -192 72 -419 180 -571 273 -633 386 -1140 929 -1245 1333 -26 100 -21
217 15 322 86 259 289 566 541 820 148 150 235 224 459 393 36 27 199 130 273
173 104 60 327 169 345 169 7 0 17 4 22 8 14 12 143 59 245 89 129 37 316 76
430 89 25 3 52 7 60 9 8 2 51 7 95 11 44 3 89 8 100 10 11 2 101 7 200 10 99
4 181 7 182 8 2 1 78 -1 298 -8z"/>
<path d="M3349 5506 c-2 -2 -38 -7 -79 -10 -194 -15 -405 -69 -550 -141 -79
-40 -256 -162 -337 -232 -315 -275 -465 -568 -520 -1018 -10 -81 -10 -532 0
-625 20 -183 75 -334 175 -482 127 -188 284 -362 441 -488 219 -176 498 -288
793 -318 93 -9 373 -9 458 0 509 56 854 266 1146 698 152 224 264 478 288 650
3 25 10 70 15 100 9 55 7 332 -3 380 -2 14 -7 43 -11 65 -41 278 -193 611
-385 845 -127 155 -318 318 -467 397 -101 54 -307 123 -409 138 -21 3 -46 8
-53 11 -8 3 -35 7 -60 10 -25 3 -59 8 -76 10 -39 6 -361 15 -366 10z m361
-121 c135 -18 268 -50 355 -84 247 -97 612 -391 757 -611 167 -254 223 -464
222 -835 0 -158 -5 -223 -20 -300 -3 -11 -7 -36 -10 -55 -13 -77 -79 -260
-135 -369 -145 -286 -380 -515 -684 -665 -249 -124 -482 -176 -755 -171 -151
3 -191 7 -300 31 -36 8 -76 17 -89 20 -14 3 -68 21 -120 41 -383 142 -689 441
-860 839 -23 54 -46 108 -51 119 -30 69 -83 245 -94 310 -3 17 -10 52 -15 79
-44 236 60 602 269 941 117 190 285 377 428 476 173 120 458 217 696 236 39 3
72 6 74 8 6 5 281 -3 332 -10z"/>
<path d="M3395 4668 c-99 -11 -236 -52 -319 -96 -92 -48 -207 -162 -259 -257
-133 -242 -153 -598 -47 -825 130 -281 434 -454 820 -466 190 -6 278 34 450
207 122 123 208 267 251 421 32 115 32 298 1 411 -92 329 -385 580 -702 604
-30 2 -71 5 -90 6 -19 2 -66 -1 -105 -5z"/>
</g>
</svg>
