<?xml version="1.0" standalone="no"?>
<!DOCTYPE svg PUBLIC "-//W3C//DTD SVG 20010904//EN"
 "http://www.w3.org/TR/2001/REC-SVG-20010904/DTD/svg10.dtd">
<svg version="1.0" xmlns="http://www.w3.org/2000/svg"
 width="70.000000pt" height="70.000000pt" viewBox="0 0 70.000000 70.000000"
 preserveAspectRatio="xMidYMid meet">
<metadata>
Created by potrace 1.14, written by Peter Selinger 2001-2017
</metadata>
<g transform="translate(0.000000,70.000000) scale(0.100000,-0.100000)"
fill="#000000" stroke="none">
<path d="M218 581 c-91 -29 -166 -94 -198 -171 -10 -23 -9 -35 5 -64 25 -52
106 -121 173 -147 81 -31 223 -31 304 0 69 27 148 95 172 149 17 38 17 40 -3
79 -32 65 -113 130 -188 153 -82 25 -188 25 -265 1z m292 -33 c62 -29 98 -61
137 -119 23 -35 24 -42 13 -69 -19 -46 -94 -119 -148 -143 -65 -29 -208 -35
-285 -13 -98 29 -207 134 -194 188 17 66 95 140 179 170 80 28 223 21 298 -14z"/>
<path d="M264 531 c-55 -34 -79 -78 -79 -147 0 -51 4 -66 28 -97 37 -48 78
-69 138 -69 73 1 118 30 153 99 35 69 6 163 -63 210 -44 30 -132 32 -177 4z
m166 -13 c55 -38 75 -73 75 -133 0 -161 -217 -216 -292 -75 -13 24 -23 57 -23
75 0 47 40 115 80 136 49 26 119 25 160 -3z"/>
<path d="M313 460 c-27 -11 -43 -40 -43 -78 0 -41 28 -71 72 -78 30 -5 41 -2
62 19 69 69 -1 173 -91 137z"/>
</g>
</svg>
